{
  "accessors": [
    {
      "bufferView": 2,
      "componentType": 5126,
      "count": 260,
      "max": [
        -927.75341796875,
        1260.7998046875,
        770.2744140625
      ],
      "min": [
        -1647.3232421875,
        927.7225952148438,
        0.0
      ],
      "type": "VEC3"
    },
    {
      "bufferView": 2,
      "byteOffset": 3120,
      "componentType": 5126,
      "count": 260,
      "max": [
        1.0,
        1.0,
        1.0
      ],
      "min": [
        -1.0,
        -0.904534101486206,
        -0.904534101486206
      ],
      "type": "VEC3"
    },
    {
      "bufferView": 1,
      "componentType": 5126,
      "count": 260,
      "max": [
        0.9829409718513489,
        0.9994999766349792
      ],
      "min": [
        0.0004999996162950993,
        0.011241834610700607
      ],
      "type": "VEC2"
    },
    {
      "bufferView": 0,
      "componentType": 5125,
      "count": 834,
      "type": "SCALAR"
    },
    {
      "bufferView": 2,
      "byteOffset": 6240,
      "componentType": 5126,
      "count": 504,
      "max": [
        -996.0311889648438,
        936.630615234375,
        701.99658203125
      ],
      "min": [
        -1579.04541015625,
        884.4906005859375,
        172.39759826660156
      ],
      "type": "VEC3"
    },
    {
      "bufferView": 2,
      "byteOffset": 12288,
      "componentType": 5126,
      "count": 504,
      "max": [
        0.9239121079444885,
        1.0,
        0.9517896771430969
      ],
      "min": [
        -0.9239121079444885,
        -1.0,
        -0.9517896771430969
      ],
      "type": "VEC3"
    },
    {
      "bufferView": 3,
      "componentType": 5126,
      "count": 504,
      "max": [
        1.0,
        0.9999603629112244,
        0.40824833512306213,
        -1.0
      ],
      "min": [
        -1.0,
        -0.9999991655349731,
        -0.40824833512306213,
        -1.0
      ],
      "type": "VEC4"
    },
    {
      "bufferView": 1,
      "byteOffset": 2080,
      "componentType": 5126,
      "count": 504,
      "max": [
        0.8808000087738037,
        0.9994999766349792
      ],
      "min": [
        0.0005000000237487257,
        0.0005000000237487257
      ],
      "type": "VEC2"
    },
    {
      "bufferView": 0,
      "byteOffset": 3336,
      "componentType": 5125,
      "count": 2340,
      "type": "SCALAR"
    }
  ],
  "asset": {
    "extras": {
      "author": "Twpic (https://sketchfab.com/TWPIC)",
      "license": "SKETCHFAB Standard (https://sketchfab.com/licenses)",
      "source": "https://sketchfab.com/3d-models/sidetable-4d17b247556546b99c5dd46f3b67b781",
      "title": "SideTable"
    },
    "generator": "Sketchfab-16.12.0",
    "version": "2.0"
  },
  "bufferViews": [
    {
      "buffer": 0,
      "byteLength": 12696,
      "name": "floatBufferViews",
      "target": 34963
    },
    {
      "buffer": 0,
      "byteLength": 6112,
      "byteOffset": 12696,
      "byteStride": 8,
      "name": "floatBufferViews",
      "target": 34962
    },
    {
      "buffer": 0,
      "byteLength": 18336,
      "byteOffset": 18808,
      "byteStride": 12,
      "name": "floatBufferViews",
      "target": 34962
    },
    {
      "buffer": 0,
      "byteLength": 8064,
      "byteOffset": 37144,
      "byteStride": 16,
      "name": "floatBufferViews",
      "target": 34962
    }
  ],
  "buffers": [
    {
      "byteLength": 45208,
      "uri": "scene.bin"
    }
  ],
  "images": [
    {
      "uri": "textures/M_BedsideTable01_01_baseColor.jpeg"
    },
    {
      "uri": "textures/M_BedsideTable01_02_baseColor.jpeg"
    },
    {
      "uri": "textures/M_BedsideTable01_02_metallicRoughness.png"
    },
    {
      "uri": "textures/M_BedsideTable01_02_normal.png"
    }
  ],
  "materials": [
    {
      "doubleSided": true,
      "name": "M_BedsideTable01_01",
      "pbrMetallicRoughness": {
        "baseColorTexture": {
          "index": 0
        }
      }
    },
    {
      "doubleSided": true,
      "name": "M_BedsideTable01_02",
      "normalTexture": {
        "index": 3
      },
      "pbrMetallicRoughness": {
        "baseColorTexture": {
          "index": 1
        },
        "metallicRoughnessTexture": {
          "index": 2
        }
      }
    }
  ],
  "meshes": [
    {
      "name": "BedsideTable01_01_M_BedsideTable01_01_0",
      "primitives": [
        {
          "attributes": {
            "NORMAL": 1,
            "POSITION": 0,
            "TEXCOORD_0": 2
          },
          "indices": 3,
          "material": 0,
          "mode": 4
        }
      ]
    },
    {
      "name": "BedsideTable01_02_M_BedsideTable01_02_0",
      "primitives": [
        {
          "attributes": {
            "NORMAL": 5,
            "POSITION": 4,
            "TANGENT": 6,
            "TEXCOORD_0": 7
          },
          "indices": 8,
          "material": 1,
          "mode": 4
        }
      ]
    }
  ],
  "nodes": [
    {
      "children": [
        1
      ],
      "matrix": [
        1.0,
        0.0,
        0.0,
        0.0,
        0.0,
        2.220446049250313e-16,
        -1.0,
        0.0,
        0.0,
        1.0,
        2.220446049250313e-16,
        0.0,
        0.0,
        0.0,
        0.0,
        1.0
      ],
      "name": "Sketchfab_model"
    },
    {
      "children": [
        2
      ],
      "matrix": [
        0.009999999776482582,
        0.0,
        0.0,
        0.0,
        0.0,
        0.0,
        0.009999999776482582,
        0.0,
        0.0,
        -0.009999999776482582,
        0.0,
        0.0,
        0.0,
        0.0,
        0.0,
        1.0
      ],
      "name": "2d6910b0addc4ed1a042c63126e9cdfb.fbx"
    },
    {
      "children": [
        3,
        5
      ],
      "name": "RootNode"
    },
    {
      "children": [
        4
      ],
      "matrix": [
        4.371138838297685e-09,
        -5.551115205843844e-18,
        -0.10000000149011605,
        0.0,
        -0.10000000149011605,
        0.0,
        -4.37113885495103e-09,
        0.0,
        5.551115205843844e-18,
        0.10000000149011615,
        -2.2204460823375376e-17,
        0.0,
        107.51689147949219,
        1.7403278499517226e-30,
        -128.75381469726563,
        1.0
      ],
      "name": "BedsideTable01_01"
    },
    {
      "mesh": 0,
      "name": "BedsideTable01_01_M_BedsideTable01_01_0"
    },
    {
      "children": [
        6
      ],
      "matrix": [
        4.371138838297685e-09,
        -5.551115205843844e-18,
        -0.10000000149011605,
        0.0,
        -0.10000000149011605,
        0.0,
        -4.37113885495103e-09,
        0.0,
        5.551115205843844e-18,
        0.10000000149011615,
        -2.2204460823375376e-17,
        0.0,
        15.956151962280273,
        0.0,
        -128.5260772705078,
        1.0
      ],
      "name": "BedsideTable01_02"
    },
    {
      "children": [
        7
      ],
      "matrix": [
        1.0,
        0.0,
        -0.0,
        0.0,
        0.0,
        1.0,
        0.0,
        0.0,
        0.0,
        0.0,
        1.0,
        0.0,
        -3.980186738772318e-05,
        -910.560546875,
        0.0001220703125,
        1.0
      ],
      "name": "Object_6"
    },
    {
      "mesh": 1,
      "name": "BedsideTable01_02_M_BedsideTable01_02_0"
    }
  ],
  "samplers": [
    {
      "magFilter": 9729,
      "minFilter": 9987,
      "wrapS": 10497,
      "wrapT": 10497
    }
  ],
  "scene": 0,
  "scenes": [
    {
      "name": "Sketchfab_Scene",
      "nodes": [
        0
      ]
    }
  ],
  "textures": [
    {
      "sampler": 0,
      "source": 0
    },
    {
      "sampler": 0,
      "source": 1
    },
    {
      "sampler": 0,
      "source": 2
    },
    {
      "sampler": 0,
      "source": 3
    }
  ]
}
